<svg width="34" height="34" viewBox="0 0 34 34" fill="none" xmlns="http://www.w3.org/2000/svg">
<g clip-path="url(#clip0_23015_38)">
<path d="M2.1 25V7.5H9.875C11.025 7.5 12.0417 7.725 12.925 8.175C13.8083 8.625 14.4917 9.25 14.975 10.05C15.475 10.8333 15.725 11.75 15.725 12.8C15.725 13.9333 15.4083 14.925 14.775 15.775C14.1583 16.6083 13.3167 17.2167 12.25 17.6L15.95 25H12.625L9.25 18H5.1V25H2.1ZM5.1 15.6H9.6C10.5333 15.6 11.2833 15.35 11.85 14.85C12.4167 14.3333 12.7 13.6583 12.7 12.825C12.7 11.975 12.4167 11.3 11.85 10.8C11.2833 10.2833 10.5333 10.025 9.6 10.025H5.1V15.6ZM24.8689 25.275C23.5023 25.275 22.2106 25.0417 20.9939 24.575C19.7939 24.0917 18.6356 23.3833 17.5189 22.45L19.1439 20.25C20.2773 21.1667 21.2856 21.825 22.1689 22.225C23.0689 22.6083 24.0273 22.8 25.0439 22.8C25.8106 22.8 26.4856 22.6833 27.0689 22.45C27.6689 22.2 28.1273 21.8667 28.4439 21.45C28.7773 21.0333 28.9439 20.55 28.9439 20C28.9439 19.2833 28.7023 18.7417 28.2189 18.375C27.7523 17.9917 26.9356 17.7 25.7689 17.5L22.5439 16.95C21.0273 16.6833 19.8939 16.175 19.1439 15.425C18.4106 14.6583 18.0439 13.6833 18.0439 12.5C18.0439 11.45 18.3106 10.5333 18.8439 9.75C19.3773 8.95 20.1189 8.33333 21.0689 7.9C22.0356 7.45 23.1773 7.225 24.4939 7.225C25.8106 7.225 27.0606 7.41667 28.2439 7.8C29.4273 8.18333 30.5189 8.74167 31.5189 9.475L29.9939 11.725C29.1106 11.0583 28.2023 10.5583 27.2689 10.225C26.3356 9.875 25.3773 9.7 24.3939 9.7C23.6939 9.7 23.0773 9.80833 22.5439 10.025C22.0273 10.2417 21.6189 10.5417 21.3189 10.925C21.0356 11.3083 20.8939 11.7333 20.8939 12.2C20.8939 12.8333 21.1023 13.325 21.5189 13.675C21.9523 14.0083 22.6439 14.2583 23.5939 14.425L26.7189 14.95C28.4856 15.2667 29.7856 15.8167 30.6189 16.6C31.4689 17.3833 31.8939 18.4417 31.8939 19.775C31.8939 20.8417 31.5939 21.7917 30.9939 22.625C30.4106 23.4583 29.5939 24.1083 28.5439 24.575C27.4939 25.0417 26.2689 25.275 24.8689 25.275Z" fill="white"/>
</g>
<defs>
<clipPath id="clip0_23015_38">
<rect width="33.65" height="33.65" fill="white"/>
</clipPath>
</defs>
</svg>
